<svg width="56" height="56" viewBox="0 0 56 56" fill="none" xmlns="http://www.w3.org/2000/svg">
<g clip-path="url(#clip0_0_73)">
<rect width="56" height="56" rx="28" fill="#FAFAFA"/>
<rect x="0.5" y="0.5" width="55" height="55" rx="27.5" stroke="#87879D" stroke-opacity="0.25"/>
<path d="M23.4661 34.16C22.7087 34.16 22.0154 34.0213 21.3861 33.744C20.7567 33.4667 20.2234 33.0773 19.7861 32.576C19.3487 32.0747 19.0074 31.4667 18.7621 30.752C18.5167 30.0373 18.3941 29.248 18.3941 28.384C18.3941 27.52 18.5167 26.736 18.7621 26.032C19.0074 25.3173 19.3487 24.7093 19.7861 24.208C20.2341 23.7067 20.7674 23.3173 21.3861 23.04C22.0154 22.7627 22.7087 22.624 23.4661 22.624C24.2234 22.624 24.9114 22.7627 25.5301 23.04C26.1594 23.3173 26.6927 23.7067 27.1301 24.208C27.5781 24.7093 27.9247 25.3173 28.1701 26.032C28.4154 26.736 28.5381 27.52 28.5381 28.384C28.5381 29.248 28.4154 30.0373 28.1701 30.752C27.9247 31.4667 27.5834 32.0747 27.1461 32.576C26.7087 33.0773 26.1754 33.4667 25.5461 33.744C24.9167 34.0213 24.2234 34.16 23.4661 34.16ZM23.4661 31.92C24.2554 31.92 24.8741 31.6053 25.3221 30.976C25.7807 30.3467 26.0101 29.4827 26.0101 28.384C26.0101 27.3067 25.7807 26.4533 25.3221 25.824C24.8634 25.184 24.2447 24.864 23.4661 24.864C22.6874 24.864 22.0687 25.184 21.6101 25.824C21.1514 26.4533 20.9221 27.3067 20.9221 28.384C20.9221 29.4827 21.1461 30.3467 21.5941 30.976C22.0527 31.6053 22.6767 31.92 23.4661 31.92ZM29.3189 34V32.192L33.8149 28.288C34.2203 27.9253 34.5136 27.5947 34.6949 27.296C34.8869 26.9973 34.9829 26.6827 34.9829 26.352C34.9829 25.9253 34.8123 25.5733 34.4709 25.296C34.1296 25.008 33.6976 24.864 33.1749 24.864C32.6523 24.864 32.1616 24.9707 31.7029 25.184C31.2549 25.3973 30.7589 25.7493 30.2149 26.24L28.7749 24.512C29.4469 23.904 30.1616 23.4453 30.9189 23.136C31.6869 22.816 32.4709 22.656 33.2709 22.656C33.9003 22.656 34.4763 22.7413 34.9989 22.912C35.5216 23.0827 35.9643 23.3227 36.3269 23.632C36.7003 23.9413 36.9883 24.3147 37.1909 24.752C37.4043 25.1893 37.5109 25.6693 37.5109 26.192C37.5109 26.8107 37.3456 27.3973 37.0149 27.952C36.6949 28.496 36.1669 29.088 35.4309 29.728L32.9669 31.84H37.6229V34H29.3189Z" fill="#87879D"/>
</g>
<defs>
<clipPath id="clip0_0_73">
<rect width="56" height="56" fill="white"/>
</clipPath>
</defs>
</svg>
